<?xml version="1.0" encoding="UTF-8"?><svg id="Layer_2" xmlns="http://www.w3.org/2000/svg" viewBox="0 0 224.98 32.4"><defs><style>.cls-1{fill:#f1f1f1;}</style></defs><g id="Layer_1-2"><path class="cls-1" d="m24.6,12.15c-.65-2.72-3.17-4.45-6.47-4.45-5.83,0-9.75,4.95-9.75,10.52,0,3.93,2.42,6.5,6.61,6.5s6.67-1.71,8.01-4.29h-8l1.12-5.21h16.8c-1.59,11.02-8.46,17.2-18.89,17.2-8.28,0-14.04-5.76-14.04-13.57C0,8.36,8.29,0,19.11,0c6.43,0,11.64,3.63,13.39,8.45l-7.91,3.7Z"/><path class="cls-1" d="m31.5,18.68C31.5,7.77,40.22,0,51.15,0c8.66,0,14.43,5.8,14.43,13.69,0,10.94-8.66,18.71-19.59,18.71-8.69,0-14.49-5.83-14.49-13.72Zm25.59-4.22c0-4.13-2.82-6.82-7.1-6.82-5.77,0-10,5-10,10.28,0,4.11,2.82,6.85,7.13,6.85,5.83,0,9.97-4.99,9.97-10.31Z"/><path class="cls-1" d="m66.31,24.17c0-.66.05-1.36.18-2.09h3.76c-.09.47-.14.91-.14,1.33,0,3.29,2.81,5.08,6.45,5.08,4.42,0,8.29-2.78,8.29-6.57,0-2.91-3.23-3.84-6.7-4.68-4.06-1-8.53-2.2-8.53-6.83,0-6.33,5.35-10.23,12.29-10.23,5.51,0,8.67,2.72,8.67,7.12,0,.64-.09,1.37-.21,2.09h-3.65c.09-.42.14-.85.14-1.26,0-2.8-2.33-4.46-5.71-4.46-4.22,0-7.8,2.36-7.8,5.85,0,2.71,3.11,3.56,6.56,4.41,4.15,1.03,8.81,2.25,8.81,7.18,0,6.59-5.73,10.94-12.85,10.94-5.83,0-9.57-2.83-9.57-7.89Z"/><path class="cls-1" d="m100.42,4.14l-1.98,9.86h12.61l-.7,3.34h-12.58l-2.15,10.72h14.22l-.7,3.5h-17.9L97.41.68h17.42l-.7,3.46h-13.72Z"/><path class="cls-1" d="m151.56.68l-1.04,30.88h-3.61l.8-24.39-15.45,23.56h-1.01l-6.02-23.55-8.99,24.38h-3.88L123.71.68h3.51l5.72,22.97L147.9.68h3.66Z"/><path class="cls-1" d="m178.36,21.53c0,5.71-4.94,10.03-10.93,10.03h-12.56l6.18-30.88h12.02c4.4,0,7.33,2.94,7.33,6.68,0,3.43-2.4,6.86-5.34,8.37,2.13,1.02,3.3,3.18,3.3,5.8Zm-3.92.08c0-2.55-1.8-4.32-4.56-4.32h-8.52l-2.15,10.74h8.52c3.78,0,6.71-3,6.71-6.42Zm-2.14-17.43h-8.32l-1.94,9.72h8.4c3.12,0,5.96-2.7,5.96-5.85,0-2.26-1.65-3.87-4.1-3.87Z"/><path class="cls-1" d="m198.06,28.18l-.66,3.38h-17.37l6.18-30.88h3.69l-5.51,27.5h13.67Z"/><path class="cls-1" d="m210.56,4.14l-1.98,9.86h12.61l-.7,3.34h-12.58l-2.15,10.72h14.22l-.7,3.5h-17.9l6.18-30.88h17.42l-.7,3.46h-13.72Z"/></g></svg>